<svg width="199" height="40" viewBox="0 0 199 40" fill="none" xmlns="http://www.w3.org/2000/svg">
<g clip-path="url(#clip0_367_12589)">
<path d="M139.173 5.21265H125.198L122.027 26.8639L118.815 5.21265H104.84V34.4146H112.933V12.6383L116.354 34.4146H127.618L131.08 12.5966V34.4146H139.173V5.21265Z" fill="white"/>
<path d="M164.454 34.4146L159.824 5.21265H145.681L141.051 34.4146H149.561L150.229 28.908H155.235L155.944 34.4146H164.454ZM152.732 9.00894L154.4 22.108H151.105L152.732 9.00894Z" fill="white"/>
<path d="M178.346 5.21265H166.332V34.4146H178.346C190.82 34.4146 194.115 26.3215 194.115 19.8137C194.115 13.3058 190.82 5.21265 178.346 5.21265ZM175.051 27.281V12.3463H177.512C182.935 12.3463 184.979 14.9745 184.979 19.8137C184.979 24.6111 182.935 27.281 177.512 27.281H175.051Z" fill="white"/>
<path fill-rule="evenodd" clip-rule="evenodd" d="M4.83557 34.4147L34.5843 19.8073L28.042 34.4147L53.3832 28.833L51.1533 34.4147H82.1153L95.5516 5.19995L46.1965 19.4788L48.8568 5.19995L4.83557 34.4147Z" fill="#FF0059"/>
</g>
<defs>
<clipPath id="clip0_367_12589">
<rect width="198.959" height="39.5104" fill="white"/>
</clipPath>
</defs>
</svg>
